<svg xmlns="http://www.w3.org/2000/svg" width="100" height="100" viewBox="0 0 100 100">
  <rect x="10" y="20" width="80" height="60" fill="#f0f0f0" stroke="#ccc" stroke-width="1"/>

  <path d="M10 20 L50 0 L90 20 L10 20" fill="#e0e0e0" stroke="#ccc" stroke-width="1"/>

  <path d="M90 20 L98 30 L98 70 L90 80 L90 20" fill="#e0e0e0" stroke="#ccc" stroke-width="1"/>

  <path d="M10 20 L2 30 L2 70 L10 80 L10 20" fill="#e0e0e0" stroke="#ccc" stroke-width="1"/>

  <path d="M50 60 L45.87 56.18C36.4 47.95 30 42.42 30 35.5C30 29.83 34.34 25.5 40 25.5c3.2 0 6.27 1.48 8 3.86c1.73-2.38 4.8-3.86 8-3.86c5.66 0 10 4.33 10 9c0 6.92-6.4 12.45-15.87 20.68L50 60z" fill="red"/>

  <rect x="15" y="25" width="70" height="50" fill="none" stroke="#bbb" stroke-width="0.5" stroke-dasharray="2 2"/>
</svg>
